<svg width="242" height="159" viewBox="0 0 242 159" fill="none" xmlns="http://www.w3.org/2000/svg">
<path d="M68.1638 44.2494C66.088 44.8744 66.2388 49.1915 66.2388 49.1915L64.0764 48.3986C63.6028 44.4301 65.9845 40.1352 65.9845 40.1352C66.5673 43.9019 68.8599 45.257 69.2919 42.5478C69.7243 39.8387 67.5311 34.9383 65.8836 34.7401C64.2355 34.5414 62.0242 37.7973 62.0242 37.7973C62.7028 34.6356 65.3785 26.4376 63.4802 26.3969C61.5815 26.3563 58.9928 36.1693 58.9928 36.1693C60.0348 30.5837 60.8941 26.4505 59.2409 26.7388C57.5878 27.0271 56.3531 34.2031 56.3531 34.2031C56.7192 28.6134 56.3696 26.71 55.0871 27.4405C53.8046 28.1711 50.3963 51.0599 50.3963 51.0599C50.3963 51.0599 45.6865 60.6299 40.7866 71.0006H58.2334L63.1188 56.0241C65.8537 54.0867 69.2249 50.8205 69.5179 49.9468C69.8098 49.0725 70.2402 43.6244 68.1638 44.2494Z" fill="#D37412"/>
<path d="M58.0334 49.0813C58.0334 49.0813 60.5887 47.7128 62.9127 48.1437C65.2367 48.5747 66.2391 49.192 66.2391 49.192C66.2391 49.192 65.9653 46.0164 67.2261 44.9264" stroke="#1F1F1F" stroke-width="0.386138" stroke-miterlimit="10" stroke-linecap="round"/>
<path d="M43.7593 62.7573L46.2156 58.5231L61.9845 60.356L59.2202 68.7697L42.8938 65.954L43.7593 62.7573Z" fill="white" stroke="#1F1F1F" stroke-width="0.514851" stroke-miterlimit="10"/>
<path d="M61.197 64.1736L42.8935 62.1039C42.8935 62.1039 30.1268 85.282 31.4849 102.639C32.614 117.067 47.9648 142.081 92.1504 117.542L108.87 70.6839C108.87 70.6839 80.6347 83.2694 71.9193 84.6508C63.2034 86.0316 61.197 64.1736 61.197 64.1736Z" fill="#F08CA8"/>
<path d="M49.1894 62.816L48.6715 62.7573L46.5498 70.514L47.0657 70.5809L49.1894 62.816Z" fill="white"/>
<path d="M46.7928 62.5451L46.263 62.4849L43.2712 70.0867L43.7974 70.1552L46.7928 62.5451Z" fill="white"/>
<path d="M52.0017 63.1336L51.4889 63.076L50.0818 70.9743L50.5925 71.0412L52.0017 63.1336Z" fill="white"/>
<path d="M43.9055 62.2182L40.7371 69.7562L41.2663 69.8252L44.4388 62.279L43.9055 62.2182Z" fill="white"/>
<path d="M60.2088 64.0619L59.6929 64.0037L59.8211 72.2439L60.3369 72.3114L60.2088 64.0619Z" fill="white"/>
<path d="M54.8276 63.4534L54.3164 63.3957L53.3994 71.4068L53.9101 71.4732L54.8276 63.4534Z" fill="white"/>
<path d="M57.7094 63.7793L57.1971 63.7216L56.6138 71.8259L57.125 71.8923L57.7094 63.7793Z" fill="white"/>
<path d="M61.1973 64.1736L42.8938 62.1039" stroke="#1F1F1F" stroke-width="0.514851" stroke-miterlimit="10" stroke-linecap="round"/>
<path d="M66.3296 127.299C73.5627 126.134 82.1124 123.117 92.1504 117.542L108.87 70.6839" stroke="#1F1F1F" stroke-width="0.514851" stroke-miterlimit="10" stroke-linecap="round"/>
<path d="M173.001 44.2494C175.077 44.8744 174.926 49.1915 174.926 49.1915L177.089 48.3986C177.562 44.4301 175.181 40.1352 175.181 40.1352C174.598 43.9019 172.305 45.257 171.873 42.5478C171.441 39.8387 173.634 34.9383 175.282 34.7401C176.93 34.5414 179.141 37.7973 179.141 37.7973C178.462 34.6356 175.786 26.4376 177.685 26.3969C179.584 26.3563 182.172 36.1693 182.172 36.1693C181.13 30.5837 180.271 26.4505 181.924 26.7388C183.578 27.0271 184.812 34.2031 184.812 34.2031C184.446 28.6134 184.796 26.71 186.078 27.4405C187.361 28.1711 190.769 51.0599 190.769 51.0599C190.769 51.0599 195.479 60.6299 200.379 71.0006H182.932L178.046 56.0241C175.312 54.0867 171.94 50.8205 171.647 49.9468C171.356 49.0725 170.926 43.6244 173.001 44.2494Z" fill="#D37412"/>
<path d="M183.132 49.0813C183.132 49.0813 180.577 47.7128 178.253 48.1437C175.929 48.5747 174.926 49.192 174.926 49.192C174.926 49.192 175.2 46.0164 173.939 44.9264" stroke="#1F1F1F" stroke-width="0.386138" stroke-miterlimit="10" stroke-linecap="round"/>
<path d="M197.406 62.7573L194.95 58.5231L179.181 60.356L181.945 68.7697L198.272 65.954L197.406 62.7573Z" fill="white" stroke="#1F1F1F" stroke-width="0.514851" stroke-miterlimit="10"/>
<path d="M179.968 64.1736L198.271 62.1039C198.271 62.1039 211.038 85.282 209.68 102.639C208.551 117.067 193.2 142.081 149.014 117.542L132.294 70.6839C132.294 70.6839 160.53 83.2694 169.245 84.6508C177.961 86.0316 179.968 64.1736 179.968 64.1736Z" fill="#F08CA8"/>
<path d="M191.976 62.816L192.494 62.7573L194.616 70.514L194.1 70.5809L191.976 62.816Z" fill="white"/>
<path d="M194.373 62.5451L194.902 62.4849L197.894 70.0867L197.368 70.1552L194.373 62.5451Z" fill="white"/>
<path d="M189.164 63.1336L189.676 63.076L191.083 70.9743L190.572 71.0412L189.164 63.1336Z" fill="white"/>
<path d="M197.26 62.2182L200.428 69.7562L199.899 69.8252L196.727 62.279L197.26 62.2182Z" fill="white"/>
<path d="M180.957 64.0619L181.473 64.0037L181.345 72.2439L180.829 72.3114L180.957 64.0619Z" fill="white"/>
<path d="M186.338 63.4534L186.85 63.3957L187.767 71.4068L187.256 71.4732L186.338 63.4534Z" fill="white"/>
<path d="M183.456 63.7793L183.968 63.7216L184.551 71.8259L184.04 71.8923L183.456 63.7793Z" fill="white"/>
<path d="M179.968 64.1736L198.271 62.1039" stroke="#1F1F1F" stroke-width="0.514851" stroke-miterlimit="10" stroke-linecap="round"/>
<path d="M174.835 127.299C167.601 126.134 159.052 123.117 149.014 117.542L132.294 70.6839" stroke="#1F1F1F" stroke-width="0.514851" stroke-miterlimit="10" stroke-linecap="round"/>
<path d="M164.239 159.092L155.463 103.567C155.463 84.3491 139.884 68.7697 120.666 68.7697C101.448 68.7697 85.8685 84.3491 85.8685 103.567L77.7014 159.092H164.239V159.092Z" fill="#F08CA8"/>
<path d="M120.666 68.7697C118.474 68.7697 116.334 68.9818 114.255 69.369C113.571 70.339 113.171 71.4675 113.171 72.6769C113.171 76.267 116.63 79.1769 120.896 79.1769C125.162 79.1769 128.62 76.2665 128.62 72.6769C128.62 71.5067 128.248 70.4116 127.605 69.4632C125.362 69.0096 123.042 68.7697 120.666 68.7697Z" fill="#F08CA8" stroke="#1F1F1F" stroke-width="0.514851" stroke-miterlimit="10"/>
<path d="M132.461 70.6839L127.099 65.0648L120.666 66.23L114.233 65.0648L108.871 70.6839L115.762 83.5341L120.666 74.7785L125.57 83.5341L132.461 70.6839Z" fill="white" stroke="#1F1F1F" stroke-width="0.514851" stroke-miterlimit="10"/>
<path d="M123.761 61.5258H117.163C109.308 61.5258 102.94 55.1581 102.94 47.303V35.4316C102.94 27.5765 109.308 21.2088 117.163 21.2088H123.761C131.616 21.2088 137.984 27.5765 137.984 35.4316V47.303C137.984 55.1576 131.616 61.5258 123.761 61.5258Z" fill="#1F1F1F"/>
<path d="M121.983 73.3261H118.941C116.17 73.3261 113.924 71.0798 113.924 68.3094V63.3725C113.924 60.6016 116.17 58.3558 118.941 58.3558H121.983C124.754 58.3558 127 60.6021 127 63.3725V68.3094C127 71.0798 124.754 73.3261 121.983 73.3261Z" fill="#D37412"/>
<path d="M141.641 50.8061C141.593 53.1419 139.646 54.9964 137.291 54.9485C134.936 54.9007 133.065 52.9684 133.113 50.6326C133.161 48.2967 135.108 46.4422 137.463 46.4901C139.818 46.5379 141.689 48.4702 141.641 50.8061Z" fill="#D37412"/>
<path d="M135.059 51.2308C135.059 51.2308 134.93 48.3543 137.873 48.7338" stroke="#1F1F1F" stroke-width="0.514851" stroke-miterlimit="10" stroke-linecap="round"/>
<path d="M99.2831 50.6326C99.2357 52.9679 101.106 54.9007 103.461 54.9485C105.816 54.9964 107.763 53.1419 107.811 50.8061C107.858 48.4702 105.988 46.5379 103.633 46.4901C101.278 46.4422 99.331 48.2967 99.2831 50.6326Z" fill="#D37412"/>
<path d="M105.842 51.325C105.842 51.325 106.088 48.4563 103.131 48.7152" stroke="#1F1F1F" stroke-width="0.514851" stroke-miterlimit="10" stroke-linecap="round"/>
<path d="M133.692 52.1184C133.692 58.3481 128.595 63.4451 122.365 63.4451H118.069C111.84 63.4451 106.743 58.3481 106.743 52.1184V39.0808C106.743 32.8511 111.84 27.7541 118.069 27.7541H122.365C128.595 27.7541 133.692 32.8511 133.692 39.0808V52.1184Z" fill="#D37412"/>
<path d="M118.071 53.6176C118.238 54.9377 119.352 55.9623 120.717 55.9623C122.082 55.9623 123.197 54.9377 123.363 53.6176H118.071Z" fill="white"/>
<path d="M110.007 42.0237C110.054 41.9846 110.101 41.946 110.149 41.9089C110.061 41.9763 110.212 41.8641 110.228 41.8533C110.327 41.7828 110.429 41.7163 110.533 41.6535C110.637 41.5907 110.743 41.5315 110.852 41.4759C110.906 41.4481 110.961 41.4213 111.016 41.3956C111.031 41.3889 111.173 41.3256 111.121 41.3477C111.07 41.3698 111.214 41.3112 111.229 41.3055C111.286 41.2839 111.343 41.2633 111.4 41.2437C111.516 41.2046 111.632 41.1691 111.75 41.1387C111.868 41.1078 111.986 41.081 112.106 41.0589C112.166 41.0475 112.226 41.0383 112.286 41.029C112.163 41.0486 112.354 41.0213 112.376 41.0192C112.643 40.9909 112.904 40.8025 112.891 40.5044C112.88 40.2495 112.663 39.9592 112.376 39.9895C111.226 40.111 110.168 40.5548 109.28 41.2962C109.072 41.4692 109.088 41.8476 109.28 42.0242C109.5 42.226 109.786 42.208 110.007 42.0237Z" fill="#1F1F1F"/>
<path d="M126.657 41.7555C126.726 41.741 126.795 41.7271 126.864 41.7153C126.866 41.7153 127.029 41.6901 126.936 41.7024C127.058 41.686 127.182 41.6762 127.304 41.6695C127.542 41.6571 127.78 41.6612 128.017 41.6824C128.078 41.6875 128.139 41.6937 128.201 41.7019C128.107 41.6896 128.271 41.7138 128.273 41.7138C128.394 41.7338 128.515 41.7586 128.635 41.7879C128.875 41.8461 129.109 41.9233 129.338 42.0149C129.589 42.1153 129.915 41.9053 129.972 41.6556C130.04 41.3575 129.881 41.1299 129.612 41.0223C128.589 40.6115 127.458 40.5373 126.383 40.7623C126.119 40.8174 125.941 41.1423 126.023 41.3956C126.113 41.6751 126.373 41.8147 126.657 41.7555Z" fill="#1F1F1F"/>
<path d="M113.765 43.3155C113.765 45.0685 112.798 46.4895 111.606 46.4895C110.414 46.4895 109.447 45.0685 109.447 43.3155" stroke="#1F1F1F" stroke-width="0.386138" stroke-miterlimit="10" stroke-linecap="round"/>
<path d="M130.24 43.3155C130.24 45.0685 129.274 46.4895 128.082 46.4895C126.889 46.4895 125.923 45.0685 125.923 43.3155" stroke="#1F1F1F" stroke-width="0.386138" stroke-miterlimit="10" stroke-linecap="round"/>
<path d="M111.369 54.1088C112.982 54.1088 114.29 52.8009 114.29 51.1875C114.29 49.5742 112.982 48.2663 111.369 48.2663C109.755 48.2663 108.447 49.5742 108.447 51.1875C108.447 52.8009 109.755 54.1088 111.369 54.1088Z" fill="#CC4B12"/>
<path d="M128.844 54.1088C130.457 54.1088 131.765 52.8009 131.765 51.1875C131.765 49.5742 130.457 48.2663 128.844 48.2663C127.231 48.2663 125.923 49.5742 125.923 51.1875C125.923 52.8009 127.231 54.1088 128.844 54.1088Z" fill="#CC4B12"/>
<path d="M119.544 42.8454L118.071 49.3819L120.717 49.5915" stroke="#1F1F1F" stroke-width="0.386138" stroke-miterlimit="10" stroke-linecap="round"/>
<path d="M119.338 19.9937C125.168 19.9937 129.893 15.518 129.893 9.99686C129.893 4.47575 125.168 0 119.338 0C113.509 0 108.783 4.47575 108.783 9.99686C108.783 15.518 113.509 19.9937 119.338 19.9937Z" fill="#1F1F1F"/>
<path d="M106.166 46.2383C106.166 46.2383 108.866 36.1029 113.506 32.5247C113.506 32.5247 120.216 39.8083 125.471 39.3815C130.727 38.9547 132.854 39.346 133.691 42.3089C134.529 45.2719 136.222 43.3155 136.466 41.7498C136.709 40.1842 137.973 29.8058 129.888 24.9204C121.803 20.0349 113.059 22.6838 108.977 26.7095C104.896 30.7351 103.316 40.4745 103.547 42.8454C103.778 45.2163 106.166 46.2383 106.166 46.2383Z" fill="#1F1F1F"/>
<path d="M127.736 62.1039C126.145 62.9596 124.325 63.4451 122.392 63.4451H118.041C116.216 63.4451 114.493 63.0127 112.968 62.245" stroke="#1F1F1F" stroke-width="0.386138" stroke-miterlimit="10" stroke-linecap="round"/>
<path d="M108.871 70.6839C108.871 70.6839 97.8213 75.609 87.4136 79.6351" stroke="#1F1F1F" stroke-width="0.514851" stroke-miterlimit="10" stroke-linecap="round"/>
<path d="M132.415 70.7143C132.415 70.7143 143.464 75.6394 153.872 79.6655" stroke="#1F1F1F" stroke-width="0.514851" stroke-miterlimit="10" stroke-linecap="round"/>
<path d="M85.868 103.567L77.7009 159.092H164.239L155.463 103.567" stroke="#1F1F1F" stroke-width="0.514851" stroke-miterlimit="10" stroke-linecap="round"/>
<path d="M203.986 145.582C202.098 146.014 200.431 145.768 200.262 145.032L195.825 125.67C195.656 124.933 197.05 123.985 198.938 123.552C200.826 123.12 202.785 123.325 202.954 124.062L207.099 143.464C207.268 144.202 205.874 145.149 203.986 145.582Z" fill="#4CAF6E" stroke="#1F1F1F" stroke-width="0.386138" stroke-miterlimit="10"/>
<path d="M195.811 125.507L202.951 123.855L197.626 117.607L195.811 125.507Z" fill="white"/>
<path d="M199.244 119.505L197.626 117.607L197.057 120.085L199.244 119.505Z" fill="#4CAF6E"/>
<path d="M195.811 125.507L202.951 123.855L197.626 117.607L195.811 125.507Z" stroke="#1F1F1F" stroke-width="0.386138" stroke-miterlimit="10" stroke-linecap="round" stroke-linejoin="round"/>
<path d="M211.508 142.026C209.616 141.609 208.215 140.672 208.378 139.934L212.662 120.537C212.825 119.8 214.49 119.54 216.382 119.958C218.273 120.375 219.955 121.4 219.792 122.138L215.228 141.447C215.065 142.185 213.4 142.444 211.508 142.026Z" fill="#F08CA8" stroke="#1F1F1F" stroke-width="0.386138" stroke-miterlimit="10"/>
<path d="M212.718 120.385L219.879 121.95L217.743 114.024L212.718 120.385Z" fill="white"/>
<path d="M218.391 116.431L217.742 114.023L216.166 116.019L218.391 116.431Z" fill="#F08CA8"/>
<path d="M212.718 120.385L219.879 121.95L217.743 114.024L212.718 120.385Z" stroke="#1F1F1F" stroke-width="0.386138" stroke-miterlimit="10" stroke-linecap="round" stroke-linejoin="round"/>
<path d="M205.242 144.678C203.986 144.678 202.969 143.66 202.969 142.405V108.761C202.969 107.506 203.987 106.488 205.242 106.488C206.498 106.488 207.515 107.506 207.515 108.761V142.405C207.515 143.661 206.498 144.678 205.242 144.678Z" fill="#D2D2D2" stroke="#1F1F1F" stroke-width="0.386138" stroke-miterlimit="10"/>
<path d="M202.969 115.879H207.515" stroke="#1F1F1F" stroke-width="0.514851" stroke-miterlimit="10"/>
<path d="M207.805 123.464C207.145 123.464 206.611 122.929 206.611 122.27V112.196C206.611 111.536 207.145 111.002 207.805 111.002C208.464 111.002 208.999 111.536 208.999 112.196V122.27C208.999 122.929 208.464 123.464 207.805 123.464Z" fill="#D2D2D2" stroke="#1F1F1F" stroke-width="0.386138" stroke-miterlimit="10"/>
<path d="M219.23 134.279H194.617V159.346H219.23V134.279Z" fill="#F5C326"/>
<path d="M194.617 134.279H219.23" stroke="#1F1F1F" stroke-width="0.514851" stroke-miterlimit="10" stroke-linecap="round"/>
<path d="M67.7451 144.876H6.19409V159.115H67.7451V144.876Z" fill="#4CAF6E"/>
<path d="M16.6885 151.995C16.6885 153.7 15.3061 155.082 13.6015 155.082C11.8968 155.082 10.5144 153.7 10.5144 151.995C10.5144 150.29 11.8963 148.908 13.6015 148.908C15.3066 148.908 16.6885 150.29 16.6885 151.995Z" fill="#1F1F1F" stroke="#E3E3E3" stroke-width="0.514851" stroke-miterlimit="10"/>
<path d="M62.9309 148.514H21.333V155.475H62.9309V148.514Z" fill="white"/>
<path d="M74.2532 131.021H14.7209V144.876H74.2532V131.021Z" fill="#D2D2D2"/>
<path d="M23.9549 137.948C23.9549 139.653 22.5725 141.035 20.8678 141.035C19.1631 141.035 17.7808 139.653 17.7808 137.948C17.7808 136.243 19.1626 134.861 20.8678 134.861C22.573 134.861 23.9549 136.243 23.9549 137.948Z" fill="#1F1F1F" stroke="#E3E3E3" stroke-width="0.514851" stroke-miterlimit="10"/>
<path d="M70.1973 134.468H28.5994V141.429H70.1973V134.468Z" fill="white"/>
<path d="M159.732 112.779H122.793H118.371H81.4313C79.8378 112.779 78.5903 114.115 78.7391 115.661L82.6999 156.703C82.8306 158.057 83.9968 159.092 85.392 159.092H118.37H122.792H155.771C157.166 159.092 158.333 158.057 158.463 156.703L162.424 115.661C162.574 114.115 161.326 112.779 159.732 112.779Z" fill="#1F1F1F"/>
<path d="M120.582 140.576C123.211 140.576 125.342 138.498 125.342 135.935C125.342 133.372 123.211 131.295 120.582 131.295C117.953 131.295 115.822 133.372 115.822 135.935C115.822 138.498 117.953 140.576 120.582 140.576Z" fill="white"/>
<path d="M159.393 159.092H81.7715C80.7259 159.092 79.8784 158.244 79.8784 157.198C79.8784 156.153 80.7259 155.305 81.7715 155.305H159.393C160.438 155.305 161.286 156.153 161.286 157.198C161.286 158.244 160.438 159.092 159.393 159.092Z" fill="#1F1F1F"/>
<path d="M109.813 117.99H97.0918V129.052H109.813V117.99Z" fill="#F5C326"/>
<path d="M98.5503 121.073H108.218" stroke="#1F1F1F" stroke-width="0.257426" stroke-miterlimit="10" stroke-linecap="round"/>
<path d="M98.5503 122.862H108.218" stroke="#1F1F1F" stroke-width="0.257426" stroke-miterlimit="10" stroke-linecap="round"/>
<path d="M98.5503 124.65H108.218" stroke="#1F1F1F" stroke-width="0.257426" stroke-miterlimit="10" stroke-linecap="round"/>
<path d="M98.5503 126.439H108.218" stroke="#1F1F1F" stroke-width="0.257426" stroke-miterlimit="10" stroke-linecap="round"/>
<path d="M91.3081 127.751H78.5872V138.813H91.3081V127.751Z" fill="#F5C326"/>
<path d="M80.1145 130.599H89.7813" stroke="#1F1F1F" stroke-width="0.257426" stroke-miterlimit="10" stroke-linecap="round"/>
<path d="M80.1145 132.388H89.7813" stroke="#1F1F1F" stroke-width="0.257426" stroke-miterlimit="10" stroke-linecap="round"/>
<path d="M80.1145 134.176H89.7813" stroke="#1F1F1F" stroke-width="0.257426" stroke-miterlimit="10" stroke-linecap="round"/>
<path d="M80.1145 135.965H86.2603" stroke="#1F1F1F" stroke-width="0.257426" stroke-miterlimit="10" stroke-linecap="round"/>
<path d="M0.372946 159.478C2.5312 159.478 4.68894 159.478 6.8472 159.478C12.6676 159.478 18.488 159.478 24.3089 159.478C32.9383 159.478 41.5677 159.478 50.1972 159.478C60.7253 159.478 71.2535 159.478 81.7817 159.478C93.2732 159.478 104.764 159.478 116.255 159.478C127.934 159.478 139.612 159.478 151.29 159.478C162.105 159.478 172.92 159.478 183.734 159.478C192.906 159.478 202.078 159.478 211.249 159.478C217.844 159.478 224.438 159.478 231.032 159.478C234.148 159.478 237.267 159.519 240.382 159.478C240.519 159.476 240.655 159.478 240.791 159.478C241.288 159.478 241.289 158.705 240.791 158.705C238.633 158.705 236.475 158.705 234.317 158.705C228.496 158.705 222.676 158.705 216.855 158.705C208.226 158.705 199.596 158.705 190.967 158.705C180.439 158.705 169.91 158.705 159.382 158.705C147.891 158.705 136.399 158.705 124.908 158.705C113.23 158.705 101.552 158.705 89.8731 158.705C79.0587 158.705 68.2437 158.705 57.4293 158.705C48.2577 158.705 39.0856 158.705 29.9141 158.705C23.3199 158.705 16.7256 158.705 10.1314 158.705C7.01556 158.705 3.89659 158.664 0.780708 158.705C0.644272 158.708 0.508351 158.705 0.371915 158.705C-0.123886 158.705 -0.124401 159.478 0.372946 159.478Z" fill="#1F1F1F"/>
</svg>
