<svg width="20" height="20" viewBox="0 0 20 20" fill="none" xmlns="http://www.w3.org/2000/svg">
<path d="M17.6165 8.25H10.5665V11.3083L11.8748 10C12.1165 9.75833 12.5165 9.75833 12.7582 10C12.9998 10.2417 12.9998 10.6417 12.7582 10.8833L10.3832 13.25C10.1415 13.4917 9.7415 13.4917 9.49984 13.25L7.12484 10.8833C6.99984 10.7583 6.9415 10.6 6.9415 10.4417C6.9415 10.2833 7.00817 10.125 7.13317 10C7.37484 9.75833 7.77484 9.75833 8.0165 10L9.3165 11.3V8.25H2.38317C1.98317 8.25 1.6665 8.56667 1.6665 8.96667C1.6665 13.875 5.0915 17.3 9.99984 17.3C14.9082 17.3 18.3332 13.875 18.3332 8.96667C18.3332 8.56667 18.0165 8.25 17.6165 8.25Z" fill="#0081A7"/>
<path d="M10.5669 3.325C10.5669 2.98333 10.2836 2.7 9.94189 2.7C9.60023 2.7 9.31689 2.98333 9.31689 3.325V8.24167H10.5669V3.325Z" fill="#0081A7"/>
</svg>
